<svg width="1129" height="515" viewBox="0 0 1129 515" fill="none" xmlns="http://www.w3.org/2000/svg">
<path d="M965.352 154.855C928.672 154.855 894.95 164.004 867.69 179.239C846.782 166.739 822.915 156.975 796.961 150.525C783.186 65.7427 686.667 0 569.403 0C482.123 0 406.258 36.413 367.472 89.9818C353.897 87.2463 339.704 85.6702 324.984 85.6702C251.951 85.6702 190.152 121.504 169.298 170.888C71.8174 190.634 0 257.011 0 336.069C0 430.688 102.708 507.391 229.409 507.391C272.151 507.391 312.008 498.514 346.256 483.315C382.046 500.561 424.589 510.688 470.362 510.688C529.311 510.688 582.888 493.949 623.525 466.648C654.034 477.862 688.228 484.329 724.527 484.329C811.463 484.329 887.092 448.206 926.004 394.964C938.618 397.3 951.74 398.677 965.316 398.677C1055.46 398.677 1128.55 344.094 1128.55 276.775C1128.55 209.456 1055.46 154.873 965.316 154.873L965.352 154.855Z" fill="#F93065" style="mix-blend-mode:darken"/>
<path d="M925.986 171.286C891.139 171.286 859.105 179.964 833.206 194.456C813.351 182.59 790.664 173.297 766.017 167.174C752.931 86.6122 661.222 24.1666 549.838 24.1666C466.932 24.1666 394.842 58.7499 357.998 109.656C345.112 107.065 331.609 105.543 317.634 105.543C248.249 105.543 189.535 139.583 169.734 186.503C77.1171 205.272 8.89325 268.315 8.89325 343.442C8.89325 433.333 106.465 506.213 226.85 506.213C267.451 506.213 305.31 497.771 337.871 483.333C371.883 499.728 412.302 509.347 455.788 509.347C511.797 509.347 562.688 493.442 601.292 467.518C630.277 478.17 662.764 484.311 697.248 484.311C779.847 484.311 851.7 449.982 888.671 399.402C900.65 401.612 913.118 402.934 926.023 402.934C1011.67 402.934 1081.11 351.087 1081.11 287.119C1081.11 223.152 1011.67 171.304 926.023 171.304L925.986 171.286Z" fill="white"/>
<path d="M219.017 384.234C211.066 372.568 197.372 361.954 183.324 359.772C175.318 358.531 167.433 358.597 159.713 361.378C156.731 362.453 153.993 363.96 151.43 365.721C145.268 368.846 139.028 372.978 134.456 377.908C125.158 387.946 120.983 404.664 122.209 418.103C123.424 431.431 128.802 446.765 140.862 453.977C146.218 457.179 152.424 457.589 158.178 459.595C166.185 462.386 165.279 473.222 167.101 480.202C168.095 484.013 169.95 487.724 173.429 489.552C172.612 491.369 172.027 493.142 172.711 495.214C173.098 496.355 173.882 496.986 174.39 498.017C175.561 500.377 174.986 501.994 174.942 504.332C174.854 508.863 177.979 510.237 181.679 510.293C186.803 513.849 192.7 516.076 198.995 514.469C207.09 512.42 210.326 504.299 214.202 497.784C214.589 497.131 214.511 496.455 214.191 495.934C214.578 492.987 213.352 489.198 212.877 486.583C212.115 482.362 210.701 479.88 208.393 476.745C210.701 471.549 205.798 463.262 205.268 458.11C204.782 453.412 205.941 452.482 209.74 450.011C212.115 448.46 214.125 447.153 215.814 444.804C219.746 439.342 222.142 432.384 223.766 425.914C227.233 412.065 227.377 396.499 219.017 384.234ZM197.88 510.381C194.324 511.456 191.044 510.592 187.764 509.539C189.332 509.185 190.734 508.764 191.739 508.442C196.378 506.969 200.95 505.429 205.367 503.368C205.433 503.335 205.511 503.302 205.577 503.268C203.843 506.625 201.833 509.185 197.88 510.381ZM208.548 491.347C208.548 491.491 208.57 491.635 208.57 491.779C208.658 495.181 207.697 496.909 204.682 498.571C201.292 500.443 197.858 501.828 194.18 503.025C191.298 503.966 188.415 505.152 185.478 505.905C183.236 506.481 180.254 505.817 179.293 503.191C179.614 504.077 179.768 499.546 179.812 499.889C179.801 499.767 179.768 499.679 179.746 499.568C185.025 498.571 190.381 497.363 195.516 495.912C198.94 494.948 204.97 493.873 208.548 491.325V491.347ZM205.456 480.157C205.665 480.534 205.831 480.833 205.875 480.911C207.002 482.805 207.697 484.999 208.106 487.237C202.86 489.497 197.791 492.222 192.292 493.884C187.841 495.236 183.6 496.676 179.293 498.327C178.896 497.651 178.355 497.186 177.858 496.333C176.477 493.984 175.925 492.544 176.323 490.527C182.452 491.68 189.045 487.902 194.401 485.542C197.581 484.146 202.242 482.573 205.444 480.146L205.456 480.157ZM188.824 460.259C190.723 466.84 192.744 473.443 194.445 480.08C191.872 481.276 189.21 482.462 186.549 483.47C186.361 482.451 186.416 481.143 186.162 480.246C185.434 477.598 184.418 475.083 183.755 472.413C182.352 466.674 181.612 460.769 179.967 455.085C178.531 450.133 176.345 445.325 174.268 440.616C173.021 437.802 171.894 434.899 170.613 432.085C175.285 431.254 179.846 429.437 183.589 426.944C183.799 431.675 184.064 436.339 184.959 441.037C186.173 447.463 187.002 453.977 188.813 460.27L188.824 460.259ZM186.582 408.354C186.781 407.611 187.212 405.329 187.819 404.952C191.022 405.207 192.546 406.947 192.369 410.16C192.402 412.497 191.762 414.558 190.447 416.342C189.277 418.469 187.764 420.375 186.008 422.036C185.842 417.472 185.411 412.852 186.593 408.354H186.582ZM221.325 419.322C220.055 425.194 218.255 431.033 215.505 436.395C213.793 439.73 211.982 442.898 208.691 444.893C206.56 446.189 204.163 447.142 202.231 448.759C199.006 451.451 199.304 454.975 199.724 458.885C200.221 463.461 205.124 472.446 201.933 476.158C200.895 477.365 198.84 478.207 197.051 478.939C196.897 478.772 196.687 478.651 196.4 478.584C196.643 478.64 194.821 472.391 194.666 471.87C194.07 469.832 193.562 467.76 192.976 465.721C191.673 461.201 190.127 456.792 189.277 452.149C187.62 443.031 186.505 434.223 186.107 425.039C187.344 423.986 188.448 422.867 189.365 421.66C193.319 416.486 197.681 408.121 191.519 402.659C187.234 398.859 184.473 403.501 183.622 407.523C182.474 412.918 183.203 418.325 183.446 423.754C183.446 423.876 183.446 423.997 183.457 424.13C179.349 427.133 174.368 428.994 169.365 429.537C168.934 428.695 168.482 427.853 167.996 427.044C164.219 420.751 159.315 411.423 150.989 410.758C144.097 410.215 145.246 418.015 147.201 422.347C150.834 430.379 159.05 433.149 167.488 432.462C168.68 435.043 169.785 437.647 170.922 440.184C175.108 449.557 177.228 458.553 179.017 468.591C179.801 472.989 181.182 476.989 182.606 481.199C183.081 482.595 183.368 483.548 184.164 484.301C181.138 485.298 177.648 486.085 175.086 483.847C172.899 481.93 172.413 478.717 171.905 475.981C170.271 467.095 168.979 457.877 159.481 454.731C154.125 452.947 148.305 452.593 143.347 449.623C137.383 446.056 132.955 439.431 130.536 433.016C124.915 418.114 126.163 400.066 134.236 386.339C138.476 379.127 144.583 374.429 151.43 369.798C153.297 368.535 155.119 367.25 157.063 366.164C157.118 366.142 157.162 366.109 157.217 366.087C160.442 364.647 163.899 363.694 167.421 363.195C169.807 363.018 172.225 363.029 174.589 363.018C174.776 363.018 174.898 362.929 174.975 362.807C176.013 362.841 177.051 362.896 178.067 362.996C184.826 363.672 191.132 364.946 196.93 368.635C202.319 372.07 207.377 376.269 211.905 380.778C222.474 391.303 224.362 405.163 221.292 419.289L221.325 419.322ZM166.185 429.714C161.502 429.67 155.55 428.429 152.292 424.917C150.503 422.978 145.544 414.602 152.524 414.004C154.313 413.849 157.416 417.084 158.763 418.513C161.856 421.782 164.175 425.659 166.185 429.714Z" fill="#007CEE"/>
</svg>
